<svg xmlns="http://www.w3.org/2000/svg" viewBox="0 0 24 24" aria-label="Instagram" role="img">
  <path fill="currentColor" fill-rule="evenodd" d="
    M 8 3
    H 16
    C 19.3137 3 21 4.6863 21 8
    V 16
    C 21 19.3137 19.3137 21 16 21
    H 8
    C 4.6863 21 3 19.3137 3 16
    V 8
    C 3 4.6863 4.6863 3 8 3
    Z

    M 12 7.5
    A 4.5 4.5 0 1 0 12 16.5
    A 4.5 4.5 0 1 0 12 7.5
    Z

    M 17.25 6.3
    A 0.95 0.95 0 1 0 17.25 8.2
    A 0.95 0.95 0 1 0 17.25 6.3
    Z

    M 12 9.2
    A 2.8 2.8 0 1 0 12 14.8
    A 2.8 2.8 0 1 0 12 9.2
    Z
  "></path>
</svg>
